<mxfile host="app.diagrams.net" agent="Mozilla/5.0 (X11; Linux x86_64) AppleWebKit/537.36 (KHTML, like Gecko) Chrome/133.0.0.0 Safari/537.36" version="26.0.16">
  <diagram name="PÃ¡gina-1" id="Pu0nokxnrZLM9DPjROEs">
    <mxGraphModel dx="1376" dy="754" grid="1" gridSize="10" guides="1" tooltips="1" connect="1" arrows="1" fold="1" page="1" pageScale="1" pageWidth="827" pageHeight="1169" math="0" shadow="0">
      <root>
        <mxCell id="0" />
        <mxCell id="1" parent="0" />
        <mxCell id="TkE53SrEO5YB9DNX2DDW-38" style="edgeStyle=orthogonalEdgeStyle;rounded=0;orthogonalLoop=1;jettySize=auto;html=1;entryX=1;entryY=0.5;entryDx=0;entryDy=0;" edge="1" parent="1" source="TkE53SrEO5YB9DNX2DDW-7" target="TkE53SrEO5YB9DNX2DDW-18">
          <mxGeometry relative="1" as="geometry" />
        </mxCell>
        <mxCell id="TkE53SrEO5YB9DNX2DDW-50" style="edgeStyle=orthogonalEdgeStyle;rounded=0;orthogonalLoop=1;jettySize=auto;html=1;entryX=0;entryY=0.5;entryDx=0;entryDy=0;exitX=0.5;exitY=0;exitDx=0;exitDy=0;exitPerimeter=0;" edge="1" parent="1" source="TkE53SrEO5YB9DNX2DDW-7" target="TkE53SrEO5YB9DNX2DDW-21">
          <mxGeometry relative="1" as="geometry">
            <mxPoint x="300" y="710" as="targetPoint" />
            <Array as="points">
              <mxPoint x="580" y="340" />
              <mxPoint x="290" y="340" />
              <mxPoint x="290" y="740" />
            </Array>
          </mxGeometry>
        </mxCell>
        <mxCell id="TkE53SrEO5YB9DNX2DDW-7" value="pipe0 / infile&lt;div&gt;fd = 5&lt;/div&gt;" style="shape=cylinder3;whiteSpace=wrap;html=1;boundedLbl=1;backgroundOutline=1;size=15;direction=north;" vertex="1" parent="1">
          <mxGeometry x="580" y="360" width="170" height="30" as="geometry" />
        </mxCell>
        <mxCell id="TkE53SrEO5YB9DNX2DDW-24" value="STDIN" style="edgeStyle=orthogonalEdgeStyle;rounded=0;orthogonalLoop=1;jettySize=auto;html=1;entryX=0;entryY=0.5;entryDx=0;entryDy=0;" edge="1" parent="1" source="TkE53SrEO5YB9DNX2DDW-8" target="TkE53SrEO5YB9DNX2DDW-19">
          <mxGeometry relative="1" as="geometry" />
        </mxCell>
        <mxCell id="TkE53SrEO5YB9DNX2DDW-8" value="infille&lt;div&gt;fd = 3&lt;/div&gt;" style="shape=cube;whiteSpace=wrap;html=1;boundedLbl=1;backgroundOutline=1;darkOpacity=0.05;darkOpacity2=0.1;" vertex="1" parent="1">
          <mxGeometry x="60" y="340" width="120" height="80" as="geometry" />
        </mxCell>
        <mxCell id="TkE53SrEO5YB9DNX2DDW-9" value="outfile&lt;div&gt;fd = 4&lt;/div&gt;" style="shape=cube;whiteSpace=wrap;html=1;boundedLbl=1;backgroundOutline=1;darkOpacity=0.05;darkOpacity2=0.1;" vertex="1" parent="1">
          <mxGeometry x="630" y="860" width="120" height="80" as="geometry" />
        </mxCell>
        <mxCell id="TkE53SrEO5YB9DNX2DDW-49" style="edgeStyle=orthogonalEdgeStyle;rounded=0;orthogonalLoop=1;jettySize=auto;html=1;entryX=0.5;entryY=0;entryDx=0;entryDy=0;entryPerimeter=0;exitX=0.5;exitY=0;exitDx=0;exitDy=0;exitPerimeter=0;" edge="1" parent="1" source="TkE53SrEO5YB9DNX2DDW-17" target="TkE53SrEO5YB9DNX2DDW-22">
          <mxGeometry relative="1" as="geometry">
            <mxPoint x="540" y="460" as="targetPoint" />
          </mxGeometry>
        </mxCell>
        <mxCell id="TkE53SrEO5YB9DNX2DDW-17" value="pipe1&lt;div&gt;fd = 6&lt;/div&gt;" style="shape=cylinder3;whiteSpace=wrap;html=1;boundedLbl=1;backgroundOutline=1;size=15;direction=south;fillColor=light-dark(#FF0728,#000000);" vertex="1" parent="1">
          <mxGeometry x="575" y="390" width="175" height="30" as="geometry" />
        </mxCell>
        <mxCell id="TkE53SrEO5YB9DNX2DDW-18" value="&lt;span style=&quot;color: rgb(0, 0, 0); font-family: Helvetica; font-size: 12px; font-style: normal; font-variant-ligatures: normal; font-variant-caps: normal; font-weight: 400; letter-spacing: normal; orphans: 2; text-align: center; text-indent: 0px; text-transform: none; widows: 2; word-spacing: 0px; -webkit-text-stroke-width: 0px; white-space: normal; background-color: rgb(251, 251, 251); text-decoration-thickness: initial; text-decoration-style: initial; text-decoration-color: initial; display: inline !important; float: none;&quot;&gt;parent PID 8963&lt;/span&gt;" style="shape=process;whiteSpace=wrap;html=1;backgroundOutline=1;" vertex="1" parent="1">
          <mxGeometry x="349" y="370" width="120" height="60" as="geometry" />
        </mxCell>
        <mxCell id="TkE53SrEO5YB9DNX2DDW-19" value="&lt;span style=&quot;color: rgb(0, 0, 0); font-family: Helvetica; font-size: 12px; font-style: normal; font-variant-ligatures: normal; font-variant-caps: normal; font-weight: 400; letter-spacing: normal; orphans: 2; text-align: center; text-indent: 0px; text-transform: none; widows: 2; word-spacing: 0px; -webkit-text-stroke-width: 0px; white-space: normal; background-color: rgb(251, 251, 251); text-decoration-thickness: initial; text-decoration-style: initial; text-decoration-color: initial; display: inline !important; float: none;&quot;&gt;child 1 PID 8964&lt;/span&gt;" style="shape=process;whiteSpace=wrap;html=1;backgroundOutline=1;" vertex="1" parent="1">
          <mxGeometry x="349" y="470" width="120" height="60" as="geometry" />
        </mxCell>
        <mxCell id="TkE53SrEO5YB9DNX2DDW-20" value="&lt;span style=&quot;color: rgb(0, 0, 0); font-family: Helvetica; font-size: 12px; font-style: normal; font-variant-ligatures: normal; font-variant-caps: normal; font-weight: 400; letter-spacing: normal; orphans: 2; text-align: center; text-indent: 0px; text-transform: none; widows: 2; word-spacing: 0px; -webkit-text-stroke-width: 0px; white-space: normal; background-color: rgb(251, 251, 251); text-decoration-thickness: initial; text-decoration-style: initial; text-decoration-color: initial; display: inline !important; float: none;&quot;&gt;child 2 PID 8965&lt;/span&gt;" style="shape=process;whiteSpace=wrap;html=1;backgroundOutline=1;" vertex="1" parent="1">
          <mxGeometry x="349" y="580" width="120" height="60" as="geometry" />
        </mxCell>
        <mxCell id="TkE53SrEO5YB9DNX2DDW-21" value="&lt;span style=&quot;color: rgb(0, 0, 0); font-family: Helvetica; font-size: 12px; font-style: normal; font-variant-ligatures: normal; font-variant-caps: normal; font-weight: 400; letter-spacing: normal; orphans: 2; text-align: center; text-indent: 0px; text-transform: none; widows: 2; word-spacing: 0px; -webkit-text-stroke-width: 0px; white-space: normal; background-color: rgb(251, 251, 251); text-decoration-thickness: initial; text-decoration-style: initial; text-decoration-color: initial; display: inline !important; float: none;&quot;&gt;final child PID 8966&lt;/span&gt;" style="shape=process;whiteSpace=wrap;html=1;backgroundOutline=1;" vertex="1" parent="1">
          <mxGeometry x="354" y="710" width="120" height="60" as="geometry" />
        </mxCell>
        <mxCell id="TkE53SrEO5YB9DNX2DDW-22" value="pipe0&lt;div&gt;fd = 5&lt;/div&gt;" style="shape=cylinder3;whiteSpace=wrap;html=1;boundedLbl=1;backgroundOutline=1;size=15;direction=north;fillColor=light-dark(#FF0728,var(--ge-dark-color, #121212));" vertex="1" parent="1">
          <mxGeometry x="580" y="480" width="170" height="30" as="geometry" />
        </mxCell>
        <mxCell id="TkE53SrEO5YB9DNX2DDW-46" style="edgeStyle=orthogonalEdgeStyle;rounded=0;orthogonalLoop=1;jettySize=auto;html=1;entryX=0.5;entryY=1;entryDx=0;entryDy=0;entryPerimeter=0;" edge="1" parent="1" source="TkE53SrEO5YB9DNX2DDW-23" target="TkE53SrEO5YB9DNX2DDW-7">
          <mxGeometry relative="1" as="geometry">
            <mxPoint x="800" y="525" as="targetPoint" />
            <Array as="points">
              <mxPoint x="800" y="525" />
              <mxPoint x="800" y="375" />
            </Array>
          </mxGeometry>
        </mxCell>
        <mxCell id="TkE53SrEO5YB9DNX2DDW-23" value="pipe1&lt;div&gt;fd = 6&lt;/div&gt;" style="shape=cylinder3;whiteSpace=wrap;html=1;boundedLbl=1;backgroundOutline=1;size=15;direction=south;" vertex="1" parent="1">
          <mxGeometry x="575" y="510" width="175" height="30" as="geometry" />
        </mxCell>
        <mxCell id="TkE53SrEO5YB9DNX2DDW-25" style="edgeStyle=orthogonalEdgeStyle;rounded=0;orthogonalLoop=1;jettySize=auto;html=1;entryX=0.5;entryY=1;entryDx=0;entryDy=0;entryPerimeter=0;" edge="1" parent="1" source="TkE53SrEO5YB9DNX2DDW-19" target="TkE53SrEO5YB9DNX2DDW-23">
          <mxGeometry relative="1" as="geometry" />
        </mxCell>
        <mxCell id="TkE53SrEO5YB9DNX2DDW-45" value="STDOUT" style="edgeLabel;html=1;align=center;verticalAlign=middle;resizable=0;points=[];" vertex="1" connectable="0" parent="TkE53SrEO5YB9DNX2DDW-25">
          <mxGeometry x="-0.2608" y="-1" relative="1" as="geometry">
            <mxPoint as="offset" />
          </mxGeometry>
        </mxCell>
        <mxCell id="TkE53SrEO5YB9DNX2DDW-28" value="pipe0&lt;div&gt;fd = 5&lt;/div&gt;" style="shape=cylinder3;whiteSpace=wrap;html=1;boundedLbl=1;backgroundOutline=1;size=15;direction=north;fillColor=light-dark(#FF0728,var(--ge-dark-color, #121212));" vertex="1" parent="1">
          <mxGeometry x="580" y="700" width="170" height="30" as="geometry" />
        </mxCell>
        <mxCell id="TkE53SrEO5YB9DNX2DDW-29" value="pipe1&lt;div&gt;fd = 6&lt;/div&gt;" style="shape=cylinder3;whiteSpace=wrap;html=1;boundedLbl=1;backgroundOutline=1;size=15;direction=south;" vertex="1" parent="1">
          <mxGeometry x="575" y="730" width="175" height="30" as="geometry" />
        </mxCell>
        <mxCell id="TkE53SrEO5YB9DNX2DDW-31" style="edgeStyle=orthogonalEdgeStyle;rounded=0;orthogonalLoop=1;jettySize=auto;html=1;entryX=0;entryY=0;entryDx=0;entryDy=30;entryPerimeter=0;" edge="1" parent="1" source="TkE53SrEO5YB9DNX2DDW-21" target="TkE53SrEO5YB9DNX2DDW-9">
          <mxGeometry relative="1" as="geometry" />
        </mxCell>
      </root>
    </mxGraphModel>
  </diagram>
</mxfile>
